<?xml version="1.0" encoding="utf-8"?>
<!-- Generator: Adobe Illustrator 17.0.0, SVG Export Plug-In . SVG Version: 6.00 Build 0)  -->
<!DOCTYPE svg PUBLIC "-//W3C//DTD SVG 1.1//EN" "http://www.w3.org/Graphics/SVG/1.1/DTD/svg11.dtd">
<svg version="1.1" id="twitter" xmlns="http://www.w3.org/2000/svg" xmlns:xlink="http://www.w3.org/1999/xlink" x="0px" y="0px"
	 width="105px" height="105px" viewBox="0 21.309 105 105" enable-background="new 0 21.309 105 105" xml:space="preserve">
<g>
	<path fill="#0399FF" d="M68.481,49.244H37.186c-4.995,0-9.059,4.064-9.059,9.059v31.295c0,4.995,4.064,9.06,9.059,9.06h31.295
		c4.995,0,9.06-4.064,9.06-9.06V58.303C77.541,53.308,73.477,49.244,68.481,49.244z M52.833,90.218
		c-8.969,0-16.266-7.297-16.266-16.267c0-8.969,7.297-16.266,16.266-16.266c8.97,0,16.267,7.297,16.267,16.266
		C69.101,82.919,61.802,90.218,52.833,90.218z M69.624,61.047c-2.123,0-3.85-1.727-3.85-3.849c0-2.122,1.727-3.849,3.85-3.849
		c2.122,0,3.849,1.727,3.849,3.849C73.472,59.321,71.746,61.047,69.624,61.047z"/>
	<path fill="#0399FF" d="M52.833,64.558c-5.178,0-9.394,4.214-9.394,9.391c0,5.18,4.216,9.395,9.394,9.395
		c5.18,0,9.392-4.215,9.392-9.395C62.226,68.773,58.012,64.558,52.833,64.558z"/>
	<path fill="#0399FF" d="M52.833,21.309c-28.994,0-52.5,23.506-52.5,52.5s23.506,52.5,52.5,52.5s52.5-23.506,52.5-52.5
		S81.827,21.309,52.833,21.309z M84.414,89.598c0,8.786-7.146,15.933-15.933,15.933H37.186c-8.785,0-15.933-7.146-15.933-15.933
		V58.303c0-8.785,7.148-15.933,15.933-15.933h31.295c8.786,0,15.933,7.148,15.933,15.933V89.598z"/>
</g>
</svg>
